<svg xmlns="http://www.w3.org/2000/svg" width="21" height="21"><path d="M20.998 10.5c0 5.798-4.7 10.498-10.498 10.498-5.798 0-10.5-4.7-10.5-10.499C.001 4.701 4.701.001 10.5.001s10.498 4.7 10.498 10.498zm-7.004 0a.692.692 0 00-.205-.498l-4.54-4.54a.7.7 0 10-.989.99l4.047 4.047-4.047 4.046a.7.7 0 00.99.99l4.539-4.538a.698.698 0 00.205-.498z"/><path fill="#c7b299" d="M20.998 10.5c0 5.798-4.7 10.498-10.498 10.498-5.798 0-10.5-4.7-10.5-10.499C.001 4.701 4.701.001 10.5.001s10.498 4.7 10.498 10.498zm-7.004 0a.692.692 0 00-.205-.498l-4.54-4.54a.7.7 0 10-.989.99l4.047 4.047-4.047 4.046a.7.7 0 00.99.99l4.539-4.538a.698.698 0 00.205-.498z"/></svg>